<svg xmlns="http://www.w3.org/2000/svg" width="200" height="150" fill="none" viewBox="0 0 200 150"><mask id="path-1-inside-1_1066_41301" fill="#fff"><path d="M0 0H200V11H0V0Z"/></mask><path fill="#fff" d="M0 0H200V11H0V0Z"/><path fill="#E5E7EB" d="M0 0V-0.5H-0.5V0H0ZM200 0H200.5V-0.5H200V0ZM0 0.5H200V-0.5H0V0.5ZM199.5 0V11H200.5V0H199.5ZM0.5 11V0H-0.5V11H0.5Z" mask="url(#path-1-inside-1_1066_41301)"/><circle cx="6.5" cy="5.5" r="1.5" fill="#D00C0C"/><circle cx="11.5" cy="5.5" r="1.5" fill="#03C95A"/><circle cx="16.5" cy="5.5" r="1.5" fill="#FFC107"/><path fill="#fff" d="M0.25 11.25H199.75V149.75H0.25V11.25Z"/><path stroke="#E5E7EB" stroke-width=".5" d="M0.25 11.25H199.75V149.75H0.25V11.25Z"/><mask id="path-7-inside-2_1066_41301" fill="#fff"><path d="M0 11H200V19H0V11Z"/></mask><path fill="#E5E7EB" d="M0 11.5H200V10.5H0V11.5Z" mask="url(#path-7-inside-2_1066_41301)"/><rect width="15" height="4" x="5" y="13" fill="#F26522" rx="2"/><rect width="18" height="3" x="32" y="13" fill="#DCE5E8" rx="1.5"/><rect width="18" height="3" x="52" y="13" fill="#DCE5E8" rx="1.5"/><rect width="9" height="3" x="72" y="13" fill="#DCE5E8" rx="1.5"/><rect width="22" height="3" x="83" y="13" fill="#DCE5E8" rx="1.5"/><rect width="13" height="3" x="107" y="13" fill="#DCE5E8" rx="1.5"/><circle cx="169" cy="15" r="2" fill="#DCE5E8"/><circle cx="175" cy="15" r="2" fill="#DCE5E8"/><circle cx="181" cy="15" r="2" fill="#DCE5E8"/><circle cx="187" cy="15" r="2" fill="#DCE5E8"/><circle cx="193" cy="15" r="2" fill="#DCE5E8"/><rect width="199" height="125" x=".5" y="19" fill="#EDF2F4"/><path fill="#E5E7EB" d="M0 144.25H200V143.75H0V144.25Z"/><rect width="41" height="2" fill="#EDF2F4" rx="1" transform="matrix(1 0 0 -1 77 148)"/></svg>